<?xml version="1.0" encoding="utf-8"?>
<svg version="1.1" xmlns="http://www.w3.org/2000/svg" x="0px" y="0px"
	 viewBox="0 0 16 16" style="enable-background:new 0 0 16 16;" xml:space="preserve">
<path fill="#AAAAAA" d="M16,4v10H0V2h7l1.3,2H16z"/>
<path opacity="0.43" d="M16,5H8.3L7,7H0V4h16V5z"/>
<g id="path4747">
	<path fill="#3A7CAE" d="M7.5,15.8c-0.5,0-0.9-0.4-0.9-0.9V6.2c0-0.4,0.4-0.9,1.6-0.9h6.2c0.6,0,0.8,0.6,0.8,0.9v0.2c0,0-6.9,0-6.9,0
		C8,6.4,7.7,6.5,7.7,6.6c0,0.1,0.3,0.2,0.5,0.2h0.9v1.6l0.4-0.7l0.4,0.7V6.8h4.8c0.7,0,0.9,0.5,0.9,0.9v7.2c0,0.5-0.4,0.9-0.9,0.9
		H7.5z"/>
	<path fill="#FFFFFF" d="M14.4,5.5C14.8,5.5,15,6,15,6.2H8.2c0,0,0,0,0,0c-0.2,0-0.7,0-0.7,0.4C7.5,7,8.2,7,8.2,7h0.7v2.3l0.6-1.1
		l0.6,1.1V7h4.6c0.7,0,0.7,0.7,0.7,0.7v7.2c0,0.4-0.3,0.7-0.7,0.7H7.5c-0.4,0-0.7-0.3-0.7-0.7V6.2c0-0.4,0.5-0.7,1.4-0.7H14.4
		 M14.4,5.1H8.2c-1.4,0-1.8,0.6-1.8,1.1v8.6c0,0.6,0.5,1.1,1.1,1.1h7.2c0.6,0,1.1-0.5,1.1-1.1V7.7c0-0.4-0.2-0.8-0.7-1h0.2V6.2
		C15.4,5.8,15,5.1,14.4,5.1L14.4,5.1z M9.3,7.6V7V6.6l0.3,0V7v0.6L9.5,7.2L9.3,7.6L9.3,7.6z"/>
</g>
</svg>
