<?xml version="1.0" encoding="UTF-8" standalone="no"?>
<svg
   xmlns:dc="http://purl.org/dc/elements/1.1/"
   xmlns:cc="http://creativecommons.org/ns#"
   xmlns:rdf="http://www.w3.org/1999/02/22-rdf-syntax-ns#"
   xmlns:svg="http://www.w3.org/2000/svg"
   xmlns="http://www.w3.org/2000/svg"
   xmlns:sodipodi="http://sodipodi.sourceforge.net/DTD/sodipodi-0.dtd"
   xmlns:inkscape="http://www.inkscape.org/namespaces/inkscape"
   enable-background="new 0 0 16 16"
   viewBox="0 0 16 16"
   version="1.1"
   id="svg906"
   sodipodi:docname="Book.svg"
   inkscape:version="0.92.3 (2405546, 2018-03-11)">
  <metadata
     id="metadata912">
    <rdf:RDF>
      <cc:Work
         rdf:about="">
        <dc:format>image/svg+xml</dc:format>
        <dc:type
           rdf:resource="http://purl.org/dc/dcmitype/StillImage" />
        <dc:title />
      </cc:Work>
    </rdf:RDF>
  </metadata>
  <defs
     id="defs910" />
  <sodipodi:namedview
     pagecolor="#ffffff"
     bordercolor="#666666"
     borderopacity="1"
     objecttolerance="10"
     gridtolerance="10"
     guidetolerance="10"
     inkscape:pageopacity="0"
     inkscape:pageshadow="2"
     inkscape:window-width="3440"
     inkscape:window-height="1391"
     id="namedview908"
     showgrid="false"
     inkscape:zoom="68.6"
     inkscape:cx="8"
     inkscape:cy="8"
     inkscape:window-x="0"
     inkscape:window-y="25"
     inkscape:window-maximized="1"
     inkscape:current-layer="svg906" />
  <g
     transform="matrix(1.1428571,0,0,1.1428571,-5.7321426,-5.7142857)"
     id="reference"
     style="fill:#3a7cae;fill-opacity:1">
    <path
       inkscape:connector-curvature="0"
       class="st1"
       d="M 7,6.5 C 7,5.953 8,6 8,6 h 9.399627 c 0,-0.276 -0.247,-1 -0.8,-1 H 8 C 6.667,5 6,5.447 6,6 v 12 c 0,0.553 0.447,1 1,1 h 10 c 0.553,0 1,-0.447 1,-1 V 8 c 0,0 0,-1 -1,-1 h -6.400068 v 3.20039 l -0.801,-1.6 L 9,10.20039 V 7 H 8 C 8,7 7,7 7,6.5 Z"
       id="path4747"
       style="fill:#3a7cae;fill-opacity:1" />
  </g>
</svg>
