<?xml version="1.0" encoding="utf-8"?>
<!-- Generator: Adobe Illustrator 22.0.1, SVG Export Plug-In . SVG Version: 6.00 Build 0)  -->
<svg version="1.1"
	 id="svg906" inkscape:version="0.92.3 (2405546, 2018-03-11)" sodipodi:docname="Book.svg" xmlns:cc="http://creativecommons.org/ns#" xmlns:dc="http://purl.org/dc/elements/1.1/" xmlns:inkscape="http://www.inkscape.org/namespaces/inkscape" xmlns:rdf="http://www.w3.org/1999/02/22-rdf-syntax-ns#" xmlns:sodipodi="http://sodipodi.sourceforge.net/DTD/sodipodi-0.dtd" xmlns:svg="http://www.w3.org/2000/svg"
	 xmlns="http://www.w3.org/2000/svg" xmlns:xlink="http://www.w3.org/1999/xlink" x="0px" y="0px" viewBox="0 0 16 16"
	 style="enable-background:new 0 0 16 16;" xml:space="preserve">
<style type="text/css">
	.st0{fill:#3A7CAE;}
	.st1{fill:#FFFFFF;}
</style>
<sodipodi:namedview  bordercolor="#666666" borderopacity="1" gridtolerance="10" guidetolerance="10" id="namedview908" inkscape:current-layer="svg906" inkscape:cx="8" inkscape:cy="8" inkscape:pageopacity="0" inkscape:pageshadow="2" inkscape:window-height="1391" inkscape:window-maximized="1" inkscape:window-width="3440" inkscape:window-x="0" inkscape:window-y="25" inkscape:zoom="68.6" objecttolerance="10" pagecolor="#ffffff" showgrid="false">
	</sodipodi:namedview>
<rect class="st0" width="16" height="16"/>
<path id="path4747" inkscape:connector-curvature="0" class="st1" d="M4,3.6c0-0.4,0.8-0.4,0.8-0.4h7.6c0-0.2-0.2-0.8-0.6-0.8H4.8
	c-1.1,0-1.6,0.4-1.6,0.8v9.7c0,0.4,0.4,0.8,0.8,0.8H12c0.4,0,0.8-0.4,0.8-0.8V4.8c0,0,0-0.8-0.8-0.8H6.9v2.6L6.2,5.3L5.6,6.6V4H4.8
	C4.8,4,4,4,4,3.6z"/>
</svg>
