<?xml version="1.0" encoding="utf-8"?>
<svg version="1.1" xmlns="http://www.w3.org/2000/svg" x="0px" y="0px"
	 viewBox="0 0 16 16" style="enable-background:new 0 0 16 16;" xml:space="preserve">
<path fill="#FFFFFF" d="M1,2h14v12H1V2z"/>
<path fill="#999999" d="M14,3v10H2V3H14 M15,2H1v12h14V2z"/>
<path fill="#3A7CAE" d="M3,4h2v2H3V4z M3,7h2v2H3V7z M3,10h2v2H3V10z"/>
<polygon fill="#B9B9B9" points="6,4 13,4 13,5 11,5 11,6 6,6 "/>
<polygon fill="#B9B9B9" points="6,7 13,7 13,8 11,8 11,9 6,9 "/>
<polygon fill="#B9B9B9" points="6,10 13,10 13,11 11,11 11,12 6,12 "/>
<g>
	<path fill="#3A7CAE" d="M7.6,15.9c-0.5,0-0.9-0.4-0.9-0.9V6.4c0-0.4,0.4-0.9,1.6-0.9h6.2c0.6,0,0.8,0.6,0.8,0.9v0.2c0,0-6.9,0-6.9,0
		c-0.2,0-0.5,0-0.5,0.2c0,0.1,0.3,0.2,0.5,0.2h0.9v1.6l0.4-0.7L10,8.5V6.9h4.8c0.7,0,0.9,0.5,0.9,0.9V15c0,0.5-0.4,0.9-0.9,0.9H7.6z
		"/>
	<path fill="#FFFFFF" d="M14.5,5.7c0.4,0,0.6,0.5,0.6,0.7H8.3c0,0,0,0,0,0c-0.2,0-0.7,0-0.7,0.4c0,0.4,0.7,0.4,0.7,0.4h0.7v2.3l0.6-1.1
		l0.6,1.1V7.1h4.6c0.7,0,0.7,0.7,0.7,0.7V15c0,0.4-0.3,0.7-0.7,0.7H7.6c-0.4,0-0.7-0.3-0.7-0.7V6.4c0-0.4,0.5-0.7,1.4-0.7H14.5
		 M14.5,5.3H8.3C7,5.3,6.5,5.8,6.5,6.4V15c0,0.6,0.5,1.1,1.1,1.1h7.2c0.6,0,1.1-0.5,1.1-1.1V7.8c0-0.4-0.2-0.8-0.7-1h0.2V6.4
		C15.5,6,15.2,5.3,14.5,5.3L14.5,5.3z M9.5,7.7V7.1V6.8l0.3,0v0.3v0.6L9.6,7.3L9.5,7.7L9.5,7.7z"/>
</g>
</svg>