<?xml version="1.0" encoding="UTF-8" standalone="no"?>
<svg version="1.1" xmlns="http://www.w3.org/2000/svg" x="0px" y="0px"
	 viewBox="0 0 16 16" style="enable-background:new 0 0 16 16;" xml:space="preserve">
<g>
	<path fill="#1D2D3E" d="M16,4.7c-0.3-1.4-1.3-0.5-1.3-0.5L12,10.8H6.6L3.3,2.3L0.5,2.1c-1,0.5-0.1,1.5-0.1,1.5l1.9,0.1l3.5,8.5h7.3 l0.5-1.4L16,4.7z"/>
	<path fill="#1D2D3E" d="M6.7,12.6c-0.6,0-1.2,0.5-1.2,1.2c0,0.6,0.5,1.2,1.2,1.2s1.2-0.5,1.2-1.2C7.9,13.2,7.4,12.6,6.7,12.6z"/>
	<path fill="#1D2D3E" d="M12.1,12.6c-0.6,0-1.2,0.5-1.2,1.2c0,0.6,0.5,1.2,1.2,1.2s1.2-0.5,1.2-1.2C13.3,13.2,12.7,12.6,12.1,12.6z"/>
</g>
<g transform="matrix(0.5,0,0,0.5,3.2711867,-0.87288122)">
   <path fill="#3A7CAE" d="M 7,6.5 C 7,5.953 8,6 8,6 h 9.399627 c 0,-0.276 -0.247,-1 -0.8,-1 H 8 C 6.667,5 6,5.447 6,6 v 12 c 0,0.553 0.447,1 1,1 h 10 c 0.553,0 1,-0.447 1,-1 V 8 c 0,0 0,-1 -1,-1 h -6.400068 v 3.20039 l -0.801,-1.6 L 9,10.20039 V 7 H 8 C 8,7 7,7 7,6.5 Z" id="path4747" />
</g>
</svg>
